CalibrationMatrices=Corners=DataRate=2000.000000
Origins=Types=events=DataType=double
version=2
endheader
time	f1_x	f1_y	f1_z	p1_x	p1_y	p1_z	m1_x	m1_y	m1_z	f2_x	f2_y	f2_z	p2_x	p2_y	p2_z	m2_x	m2_y	m2_z
2.498	2.185889959335327	14.20642757415771	-1.067664027214051	833.4037510622933	3.585556290402656e-14	585.5657799292106	101.7219881638848	661.106498695377	-49.68452646733276	-2.016449928283691	-318.3730163574219	-12.31264972686766	63.50224480679771	3.528726718049032e-14	576.2848064447428	25.49368144926302	4025.143469823507	155.6670292330525
2.4985	2.052060127258301	14.20642757415771	-1.112150073051454	828.8530330844139	3.561805102754405e-14	581.6869166251482	90.82486731190431	628.781234165386	-49.22413406608147	-1.882019996643066	-319.4185791015625	-12.26819992065428	64.22327636570381	3.530273444561071e-14	576.5374060535632	23.84321229241323	4046.697168597601	155.4251791562708
2.499	2.230499982833862	14.38181591033936	-0.978692054748536	830.6806187567447	3.57509738783089e-14	583.8577115164981	98.99193218174139	638.2800969304672	-43.43538141945469	-1.568350076675415	-319.5928649902344	-12.53489971160887	64.78382368345683	3.527776603842472e-14	576.1296410195409	19.65413329866715	4005.050188244232	157.0839275499308
2.4995	2.319720029830933	14.20642757415771	-1.023177981376649	831.130854693533	3.545931483383472e-14	579.094557851666	103.2544053236838	632.3505475143693	-45.54326929488665	-1.075440049171448	-319.7671203613281	-12.57934951782225	65.19953160312335	3.526355760634225e-14	575.8975997143685	13.78601733609685	4099.080249253775	161.2541123637199
2.5	2.319720029830933	13.85565185546875	-1.023177981376649	832.0763275113389	3.609561807692809e-14	589.4861784158383	97.84348910028444	584.4176468988364	-43.15663199915256	-0.7617700099945068	-319.7671203613281	-12.75714969635008	65.26924078298021	3.526235999978356e-14	575.8780413150075	9.889612092001698	4151.34848925495	165.6185728517009
2.5005	2.364330053329468	13.50487518310547	-0.9342060089111336	832.7621094245346	3.552152629570642e-14	580.1105481260048	96.90090155721361	553.4906511118156	-38.28797268645989	-0.7169600129127502	-319.9413757324219	-12.75714969635008	66.04675739215398	3.527158460474893e-14	576.0286905466356	9.243675654734034	4124.964088005083	164.476333335391
2.501	2.275110006332397	13.85565185546875	-0.978692054748536	830.4391060025632	3.547748631080381e-14	579.3913205914491	97.32912724619183	592.744306326446	-41.8684121938409	-0.4481000006198883	-319.9413757324219	-12.84605026245115	65.83855088188966	3.527124258795473e-14	576.0231049885068	5.950059318385684	4248.315468377379	170.5752308921944
2.5015	2.275110006332397	13.32948780059814	-0.9342060089111336	830.3711783472638	3.551214368134418e-14	579.9573184050964	100.2927046359774	587.5981289754554	-41.18220528242481	-0.2688600122928619	-320.1156311035156	-12.84605026245115	66.18637349518983	3.526484223518937e-14	575.9185792955508	3.584559719156459	4267.922131445919	171.2691817884185
2.502	2.185889959335327	13.68026351928711	-0.9342060089111337	824.3762100561303	3.553383323972715e-14	580.3115357745138	94.2161592295879	589.6462813836239	-40.26611756594233	-0.08962000161409378	-319.9413757324219	-12.80159950256346	65.81142432486212	3.522478023176022e-14	575.2643171285808	1.195552107568801	4268.093942937492	170.7763779277445
2.5025	2.275110006332397	12.80332374572754	-0.9342060089111336	821.2345190923754	3.530886833501013e-14	576.6375800695114	97.11796793697397	546.5374340420342	-39.87859442727294	-0.6721500158309937	-319.5928649902344	-12.66825008392332	65.0571666028043	3.520653849306039e-14	574.9664069276555	8.696819147395217	4135.150311916934	163.9120394242197
2.503	2.096670150756836	13.85565185546875	-1.023177981376649	829.2212119633305	3.542903854344738e-14	578.6001085066234	84.68369197133086	559.6243898292593	-41.32576074280045	-0.5825300216674805	-319.4185791015625	-12.53489971160887	64.74797903248185	3.525501552724769e-14	575.7580969761012	7.463640473784835	4092.536601353105	160.6028553766079
2.5035	2.230499982833862	14.03103923797607	-1.067664027214051	828.3619508554928	3.567253485066308e-14	582.5767049813822	87.20514766744458	548.5670737916121	-41.74212054201784	-0.04481000080704689	-318.1987609863281	-12.53489971160887	63.938934711982	3.525641620261359e-14	575.7809717407579	0.5905055578314204	4193.21877868964	165.1847313823089
2.504	2.364330053329468	13.50487518310547	-0.9786920547485359	826.3072263831991	3.57738369303135e-14	584.2310934911296	104.9739786897568	599.6034596281426	-43.45298523542923	0.2688600122928619	-318.5473022460938	-12.49044990539549	63.79988698596159	3.527599295932876e-14	576.1006844404326	-3.570995532731104	4230.94153564656	165.8980092784475
2.5045	2.319720029830933	13.85565185546875	-0.978692054748536	830.1350552549874	3.556088228454062e-14	580.7532801996379	93.25440877784081	557.0071411193113	-39.34412246627748	0.6273400187492371	-318.8958129882812	-12.53489971160887	64.50127809523357	3.527066883078127e-14	576.0137348227763	-8.386304569256026	4263.011020581456	167.5670028769962
2.505	2.275110006332397	13.68026351928711	-0.9342060089111337	829.1064264605336	3.564102892816503e-14	582.0621742200233	95.22034716693389	572.561079691081	-39.09939310466806	0.2688600122928619	-319.7671203613281	-12.57934951782225	65.00609577451067	3.522698788898762e-14	575.3003709071712	-3.62363585208368	4309.750608793438	169.5416939096174
2.5055	2.096670150756836	14.73259162902832	-0.978692054748536	834.3505858084411	3.59129194423179e-14	586.5024832845172	82.51126680259722	579.7787497273563	-38.51493818318981	-0.3584800064563751	-320.4641418457031	-12.75714969635008	65.59831367946916	3.519615994353556e-14	574.7969123512264	4.755051313662989	4250.790591442573	169.2169725777928
2.506	1.96284008026123	14.73259162902832	-1.112150073051454	828.6825322964798	3.590113740349847e-14	586.3100679884884	74.62589007367433	560.1234529824155	-42.28321498607287	0.2688600122928619	-319.9413757324219	-12.40155029296873	65.21328121168065	3.519816186005166e-14	574.829606129016	-3.568584081895096	4246.587995146394	164.6060140698098
